<svg xmlns="http://www.w3.org/2000/svg" viewBox="0 0 640 512" fill="#FF9900">
  <path d="M180.41 203.01c-.72 22.65 10.6 32.68 10.88 39.05a8.164 8.164 0 0 1-4.1 6.27l-12.8 8.96c-10.88 7.62-22.08 4.7-28.49-4.46-11.5-16.5-97.75-100.9-99.79-125.08-2.9-24.18 6.43-49.8 56.69-33.05 10.51 3.5 21.4 7.63 32.54 11.22 48.4 15.55 69.25 69.55 44.07 97.09zm96.88-70.17l-12.4 8.82c-28.21 20.08-46.7 66.39-24.24 93.72 15.5 18.98 41.66 15.47 54.54 2.82 13.02-12.9 19.59-37.06 18.98-21.8-1.43 29.7-25.51 41.61-43.83 46.19-10.3 2.58-20.75 3.77-31.33 3.43-23.72-.7-45.49-10.58-52.78-33.92-8.13-25.97 11.39-71.22 57.05-87.45 42.84-15.17 74.85 22.88 33.99 88.17zm-150.09-3.03c-42.05 16.36-69.23 54.71-62.56 101.21 7.3 51.05 52.66 89.81 101.72 79.16 49.07-10.64 87.84-63.17 78.62-118.52-9.57-57.61-60.89-93.55-117.78-61.85zm280.61-.93l-12.4 8.82c-28.21 20.08-46.7 66.39-24.24 93.72 15.5 18.98 41.66 15.47 54.54 2.82 4.62-4.6 8-10.34 10.38-16.82 1.01-2.74 1.76-5.64 2.38-8.71 1.25-6.24 1.58-12.97 1.75-19.85.24-9.55-2.61 3.14-4.53 11.58-4.53 19.78-14.22 32.3-30.69 38.22-6.56 2.34-13.47 3.36-20.44 3.26-15.55-.22-30.27-5.8-38.93-20.07-10.46-17.17 0-55.52 28.1-67.58 38.41-16.42 68.73 13.55 33.68 75.6zm-266.01 69.33c-5.68 4.35-11.93 8.11-18.65 11.22-7.33 3.38-15.13 6.07-23.35 7.89l-.71.22c-14.29 4.25-30.13 4.67-44.21-1.75-10.2-4.6-19.44-13.38-23.77-30.03-9.21-35.42 22.64-74.52 67.37-85.16 36.21-8.6 79.99 2.61 98.47 46.85 7.5 17.95 4.88 30.82-2.44 39.26-6.06 6.95-14.4 10.77-22.38 13.72-8.44 3.15-17.31 5.34-26.39 7.11-5.33.94-10.73 1.64-16.19 1.65-.68 0-2.38.12-1.83-1.43.35-.97 1.77-1.13 2.98-1.75 3.72-1.92 7.4-3.9 11.02-5.98 7.84-4.51 15.34-9.46 22.91-14.62 3.85-2.6 8.1-5.9 10.39-10.34 1.25-2.44 1.75-5.23 1.12-7.99-2.75-12.23-16.78-24.58-31.26-25.44-6.5-.38-12.76 1.25-18.18 4.73-3.48 2.24-6.41 5.28-8.93 8.76-1.53 2.1-2.99 4.49-3.9 7.11-.83 2.38-1.29 5.01-.9 7.62 1.1 7.55 6.8 13.18 13.28 15.41 5.2 1.79 10.72 1.95 16.17 1.16 5.79-.83 11.42-2.59 16.91-4.43 3.77-1.27 7.5-2.67 11.22-4.12 3.39-1.32 7.4-2.54 9.82-5.71 1.75-2.32 1.98-5.51.4-8.12-2.21-3.63-7.01-5.5-10.99-6.14-4.24-.67-8.61-.25-12.9.01-4.13.26-8.24.65-12.38.9-3.68.23-7.78.47-11.09-1.59-3.92-2.43-4.92-7.7-2.57-11.69 2.11-3.64 5.89-5.99 9.72-7.34 4.42-1.56 9.07-1.96 13.67-2.05 5.63-.11 11.28.15 16.89.73 5.88.61 11.85 1.41 17.25 3.75 6.13 2.66 11.37 7.31 13.71 13.7 2.96 8.14.71 16.99-4.3 23.71-10.72 14.33-30.55 19.53-47.97 21.07-3.74.33-7.48.49-11.23.49-4.85 0-9.71-.25-14.51-.98-4.98-.77-9.86-2.01-14.43-4.18-8.37-3.97-15.44-10.99-18.05-20.06-2.89-10.05-1.2-21.19 3.99-30.13 6.42-11.05 17.07-18.53 29-22.48 12.13-4.02 25.27-4.2 37.67-1.74 3.39.67 6.73 1.62 9.95 2.8 3.28 1.21 6.39 2.82 9.33 4.72 2.92 1.89 5.68 4.06 8.09 6.54.97 1.01 1.9 2.07 2.73 3.2.42.56.82 1.13 1.21 1.71.39.59.91 1.29.98 2.04.05.56-.14 1.11-.32 1.61-.63 1.77-1.7 3.29-2.98 4.58-2.33 2.34-5.24 3.94-8.16 5.42z"/>
</svg>

