<svg xmlns="http://www.w3.org/2000/svg" viewBox="0 0 640 512" fill="#2496ED">
  <path d="M349.9 236.3h-66.1v-59.4h66.1v59.4zm0-204.3h-66.1v60.7h66.1V32zm78.2 144.8H362v59.4h66.1v-59.4zm-156.3-72.1h-66.1v60.1h66.1v-60.1zm78.1 0h-66.1v60.1h66.1v-60.1zm276.8 100c-14.4-9.7-47.6-13.1-33.6 9.7-4.7-17.3-11.6-24.2-26.1-24.2-31.5 0-26.1 44.2 0 44.2 22.9 0 33.6-13.1 33.6-13.1 0 44.2-31.5 55.5-66.1 55.5-16.3 0-33.6-5-44.7-13.1-9.7-5-17.3-10-21.4-17.3-2.6-4.7-4.7-9.7-6.3-15.7-2.6-11-2.6-26.1 0-37.1 5.2-23.4 25.8-44.5 57.5-44.5 34.2 0 57.5 18.3 57.5 44.5-.1 30.7-31.6 60.1-76.3 60.1-22.9 0-43.1-8.9-57.5-23.4 2.6 30.7 10.5 55.5 78.1 55.5 66.1 0 98.8-13.1 126.2-37.1 27.4-23.9 47.4-47.6 57.5-71.8 4-9.7 5-21.4 2.6-29.7-8.9 7.9-19.9 13.1-29.4 13.1-35.2 0-31.5-44.2 0-44.2 29.3 0 45.7 32 21.4 60.1-40.5 51.3-101.7 70.2-185 70.2-32.8 0-103.3-10.5-103.3-10.5-.1 0-1.6 31.5 9.7 39.4 0 0 72.5 22.9 138.6 22.9 27.4 0 72.5-4.7 99.9-15.7 27.4-11 54.8-23.9 75.8-44.2 22.9-23.4 31.5-54.8 21.4-101.6 0 0-33.6 11-53.6 11-29.4 0-49.3-16.3-49.3-16.3-9.7-11-9.7-22.9-9.7-22.9 33.6-6.3 53.6-19.4 53.6-19.4 22.9-7.9 57.5-21.4 57.5-47.6 0-1.6-.6-3.3-.9-4.7-4.8-8.9-15.1-18.1-15.1-18.1-13.1 8.9-28.8 14.1-47.6 14.1-21.4 0-40.5-7.9-50.2-14.1 0 0-12.6 6.3-20.4 6.3-23.4 0-15.7-31.5-15.7-31.5 15.7-28.8 68.9-39.4 68.9-39.4 52.9-7.9 101.6 16.3 101.6 16.3 25.5-14.1 33.6-34.2 33.6-34.2-14.1 3.1-24.2 3.1-24.2 3.1z"/>
</svg>

