<svg xmlns="http://www.w3.org/2000/svg" viewBox="0 0 448 512" fill="#47A248">
  <path d="M224 340.2c-91.5 0-165.8-73.6-165.8-164.3 0-90.7 74.3-164.3 165.8-164.3 91.5 0 165.8 73.6 165.8 164.3 0 90.6-74.3 164.3-165.8 164.3zm0-324.9c-89.7 0-162.8 72.4-162.8 160.6 0 88.2 73.1 160.6 162.8 160.6s162.8-72.4 162.8-160.6c0-88.2-73.1-160.6-162.8-160.6zm-77.4 161.2c0-3.2 2.9-5.8 6.4-5.8 3.5 0 6.4 2.6 6.4 5.8 0 3.2-2.9 5.8-6.4 5.8-3.5 0-6.4-2.6-6.4-5.8zm0-31.4c0-3.2 2.9-5.8 6.4-5.8 3.5 0 6.4 2.6 6.4 5.8 0 3.2-2.9 5.8-6.4 5.8-3.5 0-6.4-2.6-6.4-5.8zm0-31.5c0-3.2 2.9-5.8 6.4-5.8 3.5 0 6.4 2.6 6.4 5.8 0 3.2-2.9 5.8-6.4 5.8-3.5 0-6.4-2.6-6.4-5.8zm140.9 62.9c0 38.9-27.6 65.3-66.4 65.3-38.8 0-66.4-26.4-66.4-65.3 0-38.9 27.6-65.3 66.4-65.3 38.8 0 66.4 26.4 66.4 65.3zm-33.2 0c0-22.7-14.5-36.8-33.2-36.8-18.7 0-33.2 14.1-33.2 36.8 0 22.7 14.5 36.8 33.2 36.8 18.7 0 33.2-14.1 33.2-36.8zm19.7 94.8c0 3.2-2.9 5.8-6.4 5.8-3.5 0-6.4-2.6-6.4-5.8 0-3.2 2.9-5.8 6.4-5.8 3.5 0 6.4 2.6 6.4 5.8zm0-31.4c0 3.2-2.9 5.8-6.4 5.8-3.5 0-6.4-2.6-6.4-5.8 0-3.2 2.9-5.8 6.4-5.8 3.5 0 6.4 2.6 6.4 5.8zm0-31.5c0 3.2-2.9 5.8-6.4 5.8-3.5 0-6.4-2.6-6.4-5.8 0-3.2 2.9-5.8 6.4-5.8 3.5 0 6.4 2.6 6.4 5.8z"/>
</svg>

